<svg fill="none" height="24" viewBox="0 0 24 24" width="24" xmlns="http://www.w3.org/2000/svg"><path d="m4.6875 7.64062c-.17578 0-.31641-.03515-.42188-.14062-.10546-.10547-.14062-.24609-.14062-.42188v-1.40624c0-.14063.03516-.28126.14062-.38672.10547-.10547.2461-.17578.42188-.17578h14.625c.1406 0 .2813.07031.3867.17578.1055.10546.1758.24609.1758.38672v1.40624c0 .17579-.0703.31641-.1758.42188-.1054.10547-.2461.14062-.3867.14062zm0 5.62498c-.17578 0-.31641-.0351-.42188-.1406-.10546-.1055-.14062-.2461-.14062-.4219v-1.4062c0-.1407.03516-.2813.14062-.3867.10547-.1055.2461-.1758.42188-.1758h14.625c.1406 0 .2813.0703.3867.1758.1055.1054.1758.246.1758.3867v1.4062c0 .1758-.0703.3164-.1758.4219-.1054.1055-.2461.1406-.3867.1406zm0 5.625c-.17578 0-.31641-.0351-.42188-.1406-.10546-.1055-.14062-.2461-.14062-.4219v-1.4062c0-.1407.03516-.2813.14062-.3867.10547-.1055.2461-.1758.42188-.1758h14.625c.1406 0 .2813.0703.3867.1758.1055.1054.1758.246.1758.3867v1.4062c0 .1758-.0703.3164-.1758.4219-.1054.1055-.2461.1406-.3867.1406z" fill="#565656"/></svg>