<svg width="24" height="24" viewBox="0 0 24 24" fill="none" xmlns="http://www.w3.org/2000/svg">
    <g id="fa-bell">
        <path id="Vector" d="M12.0002 20.5177C12.1074 20.5177 12.1609 20.4641 12.1609 20.357C12.1609 20.2499 12.1074 20.1963 12.0002 20.1963C11.6051 20.1963 11.2636 20.0523 10.9757 19.7644C10.6944 19.4831 10.5538 19.1449 10.5538 18.7499C10.5538 18.6427 10.5002 18.5891 10.3931 18.5891C10.2859 18.5891 10.2324 18.6427 10.2324 18.7499C10.2324 19.2387 10.4031 19.6539 10.7446 19.9954C11.0928 20.3436 11.5114 20.5177 12.0002 20.5177ZM20.3574 17.4641C20.3574 17.8124 20.2301 18.1137 19.9757 18.3682C19.7212 18.6226 19.4199 18.7499 19.0716 18.7499H14.5716C14.5716 19.4597 14.3205 20.0657 13.8183 20.5679C13.3161 21.0702 12.71 21.3213 12.0002 21.3213C11.2904 21.3213 10.6844 21.0702 10.1821 20.5679C9.6799 20.0657 9.42878 19.4597 9.42878 18.7499H4.92878C4.58057 18.7499 4.27923 18.6226 4.02476 18.3682C3.7703 18.1137 3.64307 17.8124 3.64307 17.4641C3.97789 17.1829 4.28258 16.8883 4.55713 16.5802C4.83168 16.2722 5.11628 15.8737 5.41092 15.3849C5.70557 14.8894 5.95333 14.357 6.15423 13.7878C6.36182 13.2186 6.52923 12.5289 6.65646 11.7186C6.79039 10.9083 6.85735 10.0378 6.85735 9.107C6.85735 8.08915 7.24909 7.14495 8.03258 6.27442C8.81606 5.39718 9.84396 4.86482 11.1163 4.67732C11.0627 4.55008 11.0359 4.4195 11.0359 4.28558C11.0359 4.01772 11.1297 3.79004 11.3172 3.60254C11.5047 3.41504 11.7324 3.32129 12.0002 3.32129C12.2681 3.32129 12.4957 3.41504 12.6832 3.60254C12.8707 3.79004 12.9645 4.01772 12.9645 4.28558C12.9645 4.4195 12.9377 4.55008 12.8841 4.67732C14.1565 4.86482 15.1844 5.39718 15.9678 6.27442C16.7513 7.14495 17.1431 8.08915 17.1431 9.107C17.1431 10.0378 17.2067 10.9083 17.3339 11.7186C17.4678 12.5289 17.6353 13.2186 17.8361 13.7878C18.0437 14.357 18.2949 14.8894 18.5895 15.3849C18.8841 15.8737 19.1687 16.2722 19.4433 16.5802C19.7178 16.8883 20.0225 17.1829 20.3574 17.4641Z" fill="#565656"/>
    </g>
</svg>
