<svg fill="none" height="24" viewBox="0 0 24 24" width="24" xmlns="http://www.w3.org/2000/svg"><path d="m12.0002 4.125c1.6172 0 3.1289.35156 4.5.98438 1.3711.66796 2.461 1.54687 3.2696 2.67187s1.2304 2.32035 1.2304 3.65625-.4218 2.5664-1.2304 3.6914-1.8985 2.0039-3.2696 2.6367c-1.3711.668-2.8828.9844-4.5.9844-1.3359 0-2.56637-.2109-3.76168-.668-.63281.4922-1.26562.8789-1.93359 1.1602-.98438.4219-2.00391.6328-3.02344.6328-.14062 0-.21094-.0352-.24609-.1758-.07032-.1054-.03516-.2109.03515-.3164.21094-.2109.45703-.5273.8086-1.0195.5625-.8086.91406-1.5821 1.125-2.3203-.63282-.6328-1.125-1.3711-1.47657-2.1446-.35156-.7734-.52734-1.582-.52734-2.4609 0-1.3359.38672-2.53125 1.19531-3.65625.8086-1.125 1.89844-2.00391 3.26953-2.67187 1.3711-.63282 2.88282-.98438 4.53512-.98438z" fill="#565656"/></svg>