<svg fill="none" height="32" viewBox="0 0 32 32" width="32" xmlns="http://www.w3.org/2000/svg"><path d="m27.2031 11.8281c.1875.4219.0469.8438-.2812 1.1719l-2.0157 1.8281c.0469.375.0469.7969.0469 1.1719 0 .4219 0 .8438-.0469 1.2188l2.0157 1.8281c.3281.2812.4687.75.2812 1.1719-.1875.5624-.4219 1.0781-.7031 1.5937l-.2344.375c-.3281.5156-.6562 1.0313-1.0312 1.4531-.2813.375-.75.4688-1.1719.3282l-2.5781-.7969c-.6563.4687-1.3594.8437-2.0625 1.1719l-.6094 2.6718c-.0938.4219-.4219.75-.8438.8438-.6562.0937-1.3125.1406-2.0156.1406-.6562 0-1.3125-.0469-1.9687-.1406-.4219-.0938-.75-.4219-.8438-.8438l-.6094-2.6718c-.75-.3282-1.4062-.7032-2.0625-1.1719l-2.57808.7969c-.42187.1406-.89062.0468-1.17187-.2813-.375-.4687-.70313-.9844-1.03125-1.5l-.23438-.375c-.28125-.5156-.51562-1.0313-.70312-1.5937-.1875-.4219-.04688-.8438.28125-1.1719l2.01562-1.8281c-.04687-.375-.04687-.7969-.04687-1.2188 0-.375 0-.7969.04687-1.1719l-2.01562-1.8281c-.32813-.3281-.46875-.75-.28125-1.1719.1875-.5625.42187-1.0781.70312-1.5937l.23438-.37502c.32812-.51563.65625-1.03126 1.03125-1.5.28125-.32813.75-.42188 1.17187-.28126l2.57808.79688c.6563-.46875 1.3594-.89062 2.0625-1.17188l.6094-2.67187c.0938-.42187.4219-.75.8438-.84375.6562-.09375 1.3125-.1875 2.0156-.1875.6562 0 1.3125.09375 1.9687.1875.4219.04688.75.42188.8438.84375l.6094 2.67187c.75.28126 1.4062.70313 2.0625 1.17188l2.5781-.79688c.4219-.14062.8906-.04687 1.1719.28126.375.46874.7031.98437 1.0312 1.5l.2344.37502c.2812.5156.5156 1.0312.75 1.5937zm-11.2031 7.9219c1.3125 0 2.5312-.7031 3.2344-1.875.6562-1.125.6562-2.5781 0-3.75-.7032-1.125-1.9219-1.875-3.2344-1.875-1.3594 0-2.5781.75-3.2813 1.875-.6562 1.1719-.6562 2.625 0 3.75.7032 1.1719 1.9219 1.875 3.2813 1.875z" fill="#565656"/></svg>