<svg fill="none" height="32" viewBox="0 0 32 32" width="32" xmlns="http://www.w3.org/2000/svg"><path d="m28.1406 16.5625-5.25 5.25c-2.625 2.6719-6.9375 2.6719-9.5625 0-2.3437-2.3438-2.6719-6-.75-8.7188l.0469-.0468c.5156-.7032 1.4531-.8438 2.1094-.375.6562.4687.8437 1.4062.3281 2.1093l-.0469.0469c-1.0781 1.5-.8906 3.5625.4219 4.875 1.4531 1.5 3.8437 1.5 5.3437 0l5.25-5.25c1.5-1.5 1.5-3.8906 0-5.34373-1.3124-1.3125-3.375-1.5-4.875-.42187l-.0468.04687c-.7032.51563-1.6406.32813-2.1094-.32812s-.3281-1.59375.3281-2.10938l.0938-.04687c2.7187-1.92188 6.375-1.59375 8.7187.75 2.6719 2.625 2.6719 6.9375 0 9.5625zm-24.3281-1.0781 5.25-5.2969c2.6719-2.625 6.9375-2.625 9.6094 0 2.3437 2.3437 2.625 6.0469.7031 8.7656l-.0469.0469c-.4687.7031-1.4531.8437-2.1093.375-.6563-.4688-.8438-1.4063-.3282-2.1094l.0469-.0469c1.0781-1.5468.8906-3.5625-.4219-4.875-1.4531-1.5-3.8437-1.5-5.3437 0l-5.25002 5.25c-1.45313 1.4532-1.45313 3.8438 0 5.3438 1.3125 1.3125 3.375 1.5 4.87502.4219l.0469-.0469c.7031-.5156 1.6406-.3281 2.1093.3281.4688.6563.3281 1.5938-.3281 2.1094l-.0938.0469c-2.67182 1.9218-6.37495 1.5937-8.7187-.75-2.67188-2.625-2.67188-6.9375 0-9.5625z" fill="#565656"/></svg>