<svg height="32" viewBox="0 0 32 32" width="32" xmlns="http://www.w3.org/2000/svg"><path d="m11.6 15.9c-.6-.9-.9-1.9-.9-2.9 0-.2 0-.5.1-.7-.5.1-1 .2-1.5.2-1.5 0-2.7-.9-2.9-.9-1.4 0-1.4 3-1.4 3.9 0 1.2 1 1.8 2.2 1.8h1.5c.7-.9 1.8-1.4 2.9-1.4zm12 7.1c0-2.6-.6-6.4-3.9-6.4-.4 0-1.8 1.5-4 1.5s-3.6-1.5-4-1.5c-3.3 0-3.8 3.8-3.8 6.4 0 1.8 1.2 2.9 2.9 2.9h9.8c1.8 0 3-1.1 3-2.9zm-11.5-14.3c0-1.6-1.2-2.8-2.8-2.8s-2.9 1.2-2.9 2.8 1.3 2.9 2.9 2.9 2.8-1.3 2.8-2.9zm7.9 4.3c0-2.4-1.9-4.3-4.3-4.3s-4.3 1.9-4.3 4.3 1.9 4.3 4.3 4.3 4.3-1.9 4.3-4.3zm6.4 2.5c0-.9.1-3.9-1.4-3.9-.2 0-1.4.9-2.9.9-.5 0-1-.1-1.4-.2v.7c0 1-.3 2-.9 2.9 1.2 0 2.2.5 3 1.4h1.5c1.1 0 2.1-.6 2.1-1.8zm-1.4-6.8c0-1.6-1.3-2.8-2.9-2.8-1.5 0-2.8 1.2-2.8 2.8s1.3 2.9 2.8 2.9c1.6 0 2.9-1.3 2.9-2.9z" fill="#a18ca0" fill-rule="evenodd"/></svg>