<svg fill="none" height="32" viewBox="0 0 32 32" width="32" xmlns="http://www.w3.org/2000/svg"><path d="m0 0h32v32h-32z" fill="#ececec"/><path d="m16 16c-1.3477 0-2.5781-.7031-3.252-1.875-.6738-1.1426-.6738-2.5781 0-3.75.6739-1.14258 1.9043-1.875 3.252-1.875 1.3184 0 2.5488.73242 3.2227 1.875.6738 1.1719.6738 2.6074 0 3.75-.6739 1.1719-1.9043 1.875-3.2227 1.875zm-1.3477 1.4062h2.6661c2.9004 0 5.2441 2.3438 5.2441 5.2442 0 .4687-.4102.8496-.8789.8496h-11.3965c-.46874 0-.8496-.3809-.8496-.8496 0-2.9004 2.3145-5.2442 5.2148-5.2442z" fill="#757575"/></svg>